<svg version="1.2" baseProfile="tiny-ps" xmlns="http://www.w3.org/2000/svg" viewBox="0 0 954 251" width="954" height="251">
	<title>Stihl_Logo-svg</title>
	<style>
		tspan { white-space:pre }
		.shp0 { fill: #f46717 } 
	</style>
	<g id="layer1">
		<g id="g2688">
			<path id="path2416" fill-rule="evenodd" class="shp0" d="M920.42 51.47C920.42 66.81 908.54 78.77 893.13 78.77C877.72 78.77 865.83 66.81 865.83 51.47C865.83 36.14 877.72 24.18 893.13 24.18C908.54 24.18 920.42 36.14 920.42 51.47ZM870.09 51.47C870.09 64.53 879.92 74.88 893.13 74.88C906.34 74.88 916.17 64.53 916.17 51.47C916.17 38.41 906.34 28.06 893.13 28.06C879.92 28.06 870.09 38.41 870.09 51.47ZM887.11 67.25L883.22 67.25L883.22 35.7L895.33 35.7C902.44 35.7 905.6 38.78 905.6 44.43C905.6 50 901.93 52.5 897.68 53.23L907.07 67.25L902.52 67.25L893.64 53.23L887.11 53.23L887.11 67.25ZM892.25 49.93C897.02 49.93 901.71 49.78 901.71 44.43C901.71 40.02 898.05 39 894.23 39L887.11 39L887.11 49.93L892.25 49.93Z" />
			<path id="path2424" fill-rule="evenodd" class="shp0" d="M761.36 35.44L816.23 35.44L766.81 171.24L882.98 171.24L867.03 215.07L695.99 215.07L761.36 35.44ZM486.64 215.07L539.05 215.07L565.94 141.2L631.23 141.2L604.34 215.07L658.29 215.07L723.67 35.44L669.71 35.44L646.62 98.9L581.33 98.9L604.43 35.44L552.01 35.44L486.64 215.07ZM393.46 215.07L448.33 215.07L513.7 35.44L458.83 35.44L393.46 215.07ZM265.33 215.07L319.9 215.07L369.31 79.28L426.02 79.28L441.97 35.44L274.62 35.44L258.66 79.28L314.76 79.28L265.33 215.07ZM259.6 35.44L129.02 35.44C110.37 35.44 98.01 47.38 92.2 63.34L74.91 110.85C67.21 132 78.08 147.64 98.92 147.64L166.97 147.64C169.73 147.64 171.78 150.39 170.67 153.46L166.32 165.42C165.13 168.69 161.11 171.24 158.38 171.24L51.4 171.24L35.45 215.07L173.38 215.07C188.59 215.07 202 208.02 209.92 186.26L226.35 141.13C234.13 119.74 222.87 104.41 203.84 104.41L135.49 104.41C131.71 104.41 130.37 101.65 131.59 98.28L135.95 86.32C137.39 82.34 140.39 79.28 145.25 79.28L243.65 79.28L259.6 35.44Z" />
		</g>
	</g>
</svg>